<?xml version="1.0" encoding="utf-8"?>
<!-- Generator: Adobe Illustrator 15.0.0, SVG Export Plug-In . SVG Version: 6.00 Build 0)  -->
<!DOCTYPE svg PUBLIC "-//W3C//DTD SVG 1.1//EN" "http://www.w3.org/Graphics/SVG/1.1/DTD/svg11.dtd">
<svg version="1.1" id="Layer_1" xmlns="http://www.w3.org/2000/svg" xmlns:xlink="http://www.w3.org/1999/xlink" x="0px" y="0px"
	 width="41px" height="21px" viewBox="0 0 41 21" enable-background="new 0 0 41 21" xml:space="preserve">
<path opacity="0.5" fill="#E4E4E4" d="M12.471,6.437c0.104,0.456,0.229,0.948,0.253,1.423c0.006,0.127,0.015,0.293-0.039,0.4
	c0.431,0.287,0.22,0.884-0.032,1.188c-0.091,0.108-0.297,0.244-0.344,0.379c-0.068,0.198-0.152,0.394-0.273,0.568
	c-0.1,0.146-0.078,0.037-0.178,0.261c-0.068,0.306-0.172,0.997-0.026,1.281c0.191,0.372,0.609,0.606,0.956,0.806
	c0.459,0.263,0.973,0.455,1.463,0.65c0.451,0.181,0.922,0.316,1.355,0.536c0.137,0.069,0.273,0.136,0.403,0.218
	c0.104,0.066,0.278,0.169,0.304,0.303V15.5H4.688l0.008-1.051c0.025-0.134,0.199-0.236,0.304-0.303
	c0.128-0.082,0.267-0.148,0.402-0.218c0.435-0.22,0.905-0.355,1.356-0.536c0.49-0.195,1.003-0.388,1.463-0.65
	c0.346-0.199,0.764-0.434,0.955-0.806c0.145-0.284,0.064-0.979-0.004-1.283l0,0c-0.116-0.075-0.197-0.31-0.264-0.425
	C8.84,10.104,8.783,9.971,8.699,9.857C8.584,9.701,8.391,9.628,8.264,9.481C8.18,9.385,8.145,9.264,8.103,9.145
	c-0.05-0.143-0.025-0.259-0.048-0.419C8.045,8.657,8.08,8.578,8.121,8.52c0.05-0.07,0.141-0.085,0.164-0.176
	c0.029-0.111-0.034-0.242-0.047-0.353C8.227,7.873,8.195,7.686,8.195,7.567C8.197,7.138,8.119,6.75,8.462,6.41
	c0.122-0.119,0.259-0.222,0.39-0.328l0,0c0.051-0.16,0.292-0.26,0.434-0.313c0.183-0.07,0.376-0.109,0.563-0.165
	c0.567-0.17,1.22-0.15,1.718,0.199c0.164,0.115,0.389,0.018,0.561,0.115C12.293,6.014,12.49,6.234,12.471,6.437z"/>
<g>
	<g opacity="0.5">
		<path fill="#E4E4E4" d="M30.5,15.662c-2.847,0-5.162-2.315-5.162-5.161c0-2.847,2.315-5.162,5.162-5.162
			c2.846,0,5.161,2.315,5.161,5.162C35.662,13.346,33.346,15.662,30.5,15.662z M30.5,6.577c-2.164,0-3.924,1.76-3.924,3.924
			c0,2.162,1.76,3.922,3.924,3.922c2.162,0,3.922-1.76,3.922-3.922C34.422,8.336,32.663,6.577,30.5,6.577z"/>
	</g>
	<path opacity="0.5" fill="#E4E4E4" d="M32.217,10.791h-1.689V8.713c0-0.25-0.203-0.452-0.452-0.452s-0.452,0.202-0.452,0.452v2.535
		c0,0.246,0.199,0.445,0.445,0.445h2.148c0.25,0,0.452-0.202,0.452-0.451C32.669,10.993,32.467,10.791,32.217,10.791z"/>
</g>
</svg>
